<svg width="29" height="29" viewBox="0 0 29 29" fill="none" xmlns="http://www.w3.org/2000/svg">
<rect x="0.5" y="0.5" width="28" height="28" rx="14" stroke="white"/>
<path d="M19.6981 9.99523C18.7418 9.53526 17.7169 9.19529 16.645 9.00197C16.6355 9.00001 16.6256 9.00127 16.6167 9.00557C16.6079 9.00987 16.6005 9.017 16.5956 9.02597C16.4644 9.27195 16.3182 9.59259 16.2157 9.84591C15.0789 9.66475 13.9232 9.66475 12.7864 9.84591C12.6722 9.56517 12.5435 9.29143 12.4008 9.02597C12.3959 9.01689 12.3886 9.0096 12.3798 9.00507C12.371 9.00055 12.3611 8.999 12.3514 9.00063C11.2802 9.19395 10.2552 9.53393 9.29836 9.99457C9.29013 9.99825 9.28315 10.0045 9.27836 10.0126C7.33342 13.0624 6.80031 16.0368 7.06217 18.974C7.0629 18.9812 7.065 18.9881 7.06833 18.9944C7.07166 19.0007 7.07616 19.0063 7.08155 19.0106C8.21676 19.8922 9.48294 20.5638 10.8271 20.9972C10.8364 21.0003 10.8465 21.0002 10.8558 20.9972C10.8652 20.9941 10.8735 20.988 10.8796 20.9798C11.1683 20.5665 11.4258 20.1299 11.6458 19.6713C11.6589 19.6446 11.6464 19.6126 11.6202 19.6019C11.2164 19.4398 10.8252 19.2441 10.4502 19.0166C10.4435 19.0125 10.4378 19.0067 10.4337 18.9997C10.4296 18.9927 10.4272 18.9847 10.4267 18.9764C10.4262 18.9682 10.4276 18.9599 10.4308 18.9524C10.4341 18.9448 10.439 18.9383 10.4452 18.9333C10.5239 18.8713 10.6027 18.8067 10.6777 18.742C10.6844 18.7362 10.6926 18.7325 10.7012 18.7313C10.7098 18.7301 10.7185 18.7315 10.7264 18.7353C13.1807 19.9113 15.8388 19.9113 18.2643 18.7353C18.2723 18.7313 18.2811 18.7297 18.2898 18.7308C18.2986 18.7318 18.3068 18.7355 18.3137 18.7413C18.3887 18.8067 18.4668 18.8713 18.5462 18.9333C18.5525 18.9382 18.5575 18.9447 18.5608 18.9521C18.5642 18.9596 18.5657 18.9678 18.5653 18.9761C18.565 18.9843 18.5627 18.9923 18.5587 18.9994C18.5547 19.0065 18.5491 19.0124 18.5425 19.0166C18.1687 19.246 17.78 19.4399 17.3719 19.6013C17.3656 19.6037 17.3599 19.6075 17.3551 19.6125C17.3504 19.6175 17.3466 19.6235 17.3442 19.6301C17.3418 19.6367 17.3407 19.6438 17.3411 19.6509C17.3414 19.658 17.3432 19.665 17.3463 19.6713C17.5712 20.1292 17.8287 20.5652 18.1119 20.9792C18.1177 20.9877 18.1259 20.994 18.1353 20.9974C18.1447 21.0007 18.1549 21.0009 18.1644 20.9978C19.5108 20.5656 20.779 19.8938 21.9155 19.0106C21.921 19.0065 21.9257 19.0012 21.9291 18.9949C21.9326 18.9887 21.9348 18.9818 21.9355 18.9746C22.248 15.5789 21.4118 12.6284 19.7174 10.0139C19.7133 10.0054 19.7064 9.99878 19.6981 9.99523ZM12.0127 17.1854C11.2739 17.1854 10.6646 16.4728 10.6646 15.5989C10.6646 14.7243 11.2621 14.0123 12.0127 14.0123C12.7689 14.0123 13.3726 14.7303 13.3607 15.5989C13.3607 16.4735 12.7633 17.1854 12.0127 17.1854ZM16.9969 17.1854C16.2575 17.1854 15.6488 16.4728 15.6488 15.5989C15.6488 14.7243 16.2457 14.0123 16.9969 14.0123C17.7531 14.0123 18.3568 14.7303 18.345 15.5989C18.345 16.4735 17.7537 17.1854 16.9969 17.1854Z" fill="white"/>
</svg>
