<svg width="29" height="29" viewBox="0 0 29 29" fill="none" xmlns="http://www.w3.org/2000/svg">
<rect x="0.5" y="0.5" width="28" height="28" rx="14" stroke="white"/>
<path d="M14.9984 12.9991C13.8967 12.9991 12.9976 13.8983 12.9976 15C12.9976 16.1017 13.8967 17.0009 14.9984 17.0009C16.1001 17.0009 16.9992 16.1017 16.9992 15C16.9992 13.8983 16.1001 12.9991 14.9984 12.9991ZM20.9993 15C20.9993 14.1714 21.0068 13.3504 20.9603 12.5233C20.9138 11.5627 20.6946 10.7101 19.9922 10.0076C19.2882 9.30365 18.4371 9.086 17.4765 9.03947C16.648 8.99294 15.8269 9.00045 14.9999 9.00045C14.1713 9.00045 13.3503 8.99294 12.5233 9.03947C11.5626 9.086 10.7101 9.30515 10.0076 10.0076C9.30365 10.7116 9.086 11.5627 9.03947 12.5233C8.99294 13.3519 9.00045 14.1729 9.00045 15C9.00045 15.8271 8.99294 16.6496 9.03947 17.4767C9.086 18.4373 9.30515 19.2899 10.0076 19.9924C10.7116 20.6963 11.5626 20.914 12.5233 20.9605C13.3518 21.0071 14.1728 20.9996 14.9999 20.9996C15.8284 20.9996 16.6495 21.0071 17.4765 20.9605C18.4371 20.914 19.2897 20.6948 19.9922 19.9924C20.6961 19.2884 20.9138 18.4373 20.9603 17.4767C21.0083 16.6496 20.9993 15.8286 20.9993 15ZM14.9984 18.0786C13.2948 18.0786 11.9199 16.7037 11.9199 15C11.9199 13.2963 13.2948 11.9214 14.9984 11.9214C16.702 11.9214 18.0769 13.2963 18.0769 15C18.0769 16.7037 16.702 18.0786 14.9984 18.0786ZM18.203 12.5143C17.8052 12.5143 17.484 12.1931 17.484 11.7953C17.484 11.3976 17.8052 11.0763 18.203 11.0763C18.6008 11.0763 18.922 11.3976 18.922 11.7953C18.9221 11.8898 18.9036 11.9833 18.8675 12.0706C18.8314 12.1579 18.7784 12.2372 18.7116 12.304C18.6449 12.3708 18.5656 12.4237 18.4783 12.4598C18.391 12.4959 18.2974 12.5144 18.203 12.5143Z" fill="white"/>
</svg>
