<svg width="29" height="29" viewBox="0 0 29 29" fill="none" xmlns="http://www.w3.org/2000/svg">
<rect x="0.5" y="0.5" width="28" height="28" rx="14" stroke="white"/>
<path d="M22 10.4234C21.4852 10.664 20.9321 10.8265 20.3507 10.8999C20.9506 10.5215 21.3994 9.92574 21.6134 9.22397C21.0498 9.57697 20.4329 9.82545 19.7896 9.95859C19.357 9.47158 18.784 9.14877 18.1595 9.0403C17.5351 8.93183 16.8942 9.04376 16.3363 9.35871C15.7784 9.67366 15.3347 10.174 15.0741 10.7821C14.8135 11.3902 14.7506 12.0719 14.8952 12.7215C13.7531 12.6611 12.6358 12.3481 11.6159 11.8029C10.5959 11.2577 9.69611 10.4924 8.97481 9.55683C8.72818 10.0054 8.58636 10.5255 8.58636 11.0794C8.58609 11.578 8.70255 12.069 8.92541 12.5088C9.14827 12.9486 9.47064 13.3236 9.86391 13.6005C9.40782 13.5852 8.96178 13.4552 8.56293 13.2215V13.2605C8.56289 13.9598 8.79232 14.6377 9.2123 15.1789C9.63229 15.7202 10.2169 16.0916 10.8671 16.2302C10.444 16.3509 10.0004 16.3687 9.56981 16.2822C9.75324 16.8839 10.1105 17.4101 10.5917 17.7871C11.0729 18.1641 11.6538 18.373 12.2531 18.3846C11.2357 19.2268 9.97914 19.6836 8.68563 19.6816C8.4565 19.6816 8.22756 19.6675 8 19.6393C9.31299 20.5294 10.8414 21.0018 12.4024 21C17.6864 21 20.5751 16.3855 20.5751 12.3835C20.5751 12.2535 20.572 12.1221 20.5665 11.9921C21.1283 11.5637 21.6134 11.0332 21.9988 10.4254L22 10.4234Z" fill="white"/>
</svg>
